:FULLY-SPECIFIED
:FORCE-ALL-JOINTS-BE-3DOF
:DEGREES
747
root 4.13836 16.7877 14.4637 -163.498 -8.53644 189.075
lfemur -32.2645 1.34433 -15.018
ltibia 45.0221 0 0
lfoot -28.4002 5.33448 0
ltoes 6.14754 0 0
rfemur -27.5566 -32.3912 10.8593
rtibia 106.454 0 0
rfoot 15.9795 3.59151 0
rtoes 17.5366 0 0
lowerback 2.64664 6.70862 -2.03113
upperback -1.32093 8.8106 -1.43396
thorax -2.8984 4.40889 -0.796198
lowerneck -6.54928 -8.52563 -1.37781
upperneck -2.12658 -11.4671 5.41902
head 0.848638 -5.75132 1.57686
lclavicle 2.16675e-14 3.28847e-14 0
lhumerus -54.4143 -6.22009 74.855
lradius 48.7857 0 0
lwrist 16.2516 0 0
lhand -27.982 -4.22636 0
lfingers 7.12502 0 0
lthumb -1.36849 25.7371 0
rclavicle 2.16675e-14 3.28847e-14 0
rhumerus 24.4491 38.6436 -68.0261
rradius 95.5012 0 0
rwrist -0.895659 0 0
rhand -21.2893 -21.1323 0
rfingers 7.12502 0 0
rthumb 5.09367 -770.988 0
748
root 4.09853 16.6397 14.6593 -163.38 -6.43855 188.91
lfemur -33.8304 3.11042 -16.1458
ltibia 47.5376 0 0
lfoot -29.6067 6.48016 0
ltoes 5.98248 0 0
rfemur -27.6829 -32.6255 12.5896
rtibia 104.708 0 0
rfoot 15.2057 2.80291 0
rtoes 17.3761 0 0
lowerback 2.88424 6.51704 -2.4236
upperback -1.18934 8.52725 -1.58299
thorax -2.93018 4.27077 -0.744062
lowerneck -6.40683 -8.61945 -1.51849
upperneck -2.18339 -11.5929 5.79513
head 0.845552 -5.81625 1.71854
lclavicle 1.19271e-14 3.14648e-14 0
lhumerus -53.4492 -5.80537 77.1375
lradius 48.9818 0 0
lwrist 15.4186 0 0
lhand -28.6544 -4.39152 0
lfingers 7.12502 0 0
lthumb -2.01793 25.5688 0
rclavicle 1.19271e-14 3.14648e-14 0
rhumerus 21.7575 41.37 -70.8677
rradius 95.5785 0 0
rwrist 0.115374 0 0
rhand -19.751 -19.8529 0
rfingers 7.12502 0 0
rthumb 6.5789 -769.678 0
749
root 4.05869 16.4917 14.855 -163.262 -4.34066 188.745
lfemur -35.3962 4.87651 -17.2735
ltibia 50.0532 0 0
lfoot -30.8132 7.62585 0
ltoes 5.81741 0 0
rfemur -27.8091 -32.8599 14.3198
rtibia 102.962 0 0
rfoot 14.432 2.0143 0
rtoes 17.2157 0 0
lowerback 3.12185 6.32546 -2.81608
upperback -1.05775 8.24391 -1.73202
thorax -2.96197 4.13266 -0.691927
lowerneck -6.26438 -8.71326 -1.65917
upperneck -2.24019 -11.7187 6.17125
head 0.842465 -5.88118 1.86021
lclavicle 2.18663e-15 3.00449e-14 0
lhumerus -52.4841 -5.39065 79.4199
lradius 49.1779 0 0
lwrist 14.5857 0 0
lhand -29.3269 -4.55668 0
lfingers 7.12502 0 0
lthumb -2.66738 25.4004 0
rclavicle 2.18663e-15 3.00449e-14 0
rhumerus 19.0659 44.0963 -73.7092
rradius 95.6559 0 0
rwrist 1.12641 0 0
rhand -18.2128 -18.5735 0
rfingers 7.12502 0 0
rthumb 8.06414 -768.368 0
750
root 4.01886 16.3437 15.0506 -163.144 -2.24277 188.58
lfemur -36.9621 6.6426 -18.4013
ltibia 52.5687 0 0
lfoot -32.0197 8.77153 0
ltoes 5.65235 0 0
rfemur -27.9354 -33.0942 16.05
rtibia 101.216 0 0
rfoot 13.6582 1.2257 0
rtoes 17.0552 0 0
lowerback 3.35945 6.13388 -3.20855
upperback -0.926159 7.96056 -1.88105
thorax -2.99375 3.99454 -0.639791
lowerneck -6.12193 -8.80708 -1.79985
upperneck -2.297 -11.8445 6.54736
head 0.839379 -5.94611 2.00189
lclavicle -7.55382e-15 2.8625e-14 0
lhumerus -51.519 -4.97593 81.7024
lradius 49.374 0 0
lwrist 13.7527 0 0
lhand -29.9993 -4.72184 0
lfingers 7.12502 0 0
lthumb -3.31682 25.2321 0
rclavicle -7.55382e-15 2.8625e-14 0
rhumerus 16.3743 46.8227 -76.5508
rradius 95.7332 0 0
rwrist 2.13744 0 0
rhand -16.6745 -17.2941 0
rfingers 7.12502 0 0
rthumb 9.54937 -767.058 0
751
root 3.94556 16.2779 15.2112 -163.229 0.730526 188.583
lfemur -37.8184 8.48679 -19.2869
ltibia 53.7158 0 0
lfoot -32.2446 9.29417 0
ltoes 6.576 0 0
rfemur -27.3649 -32.9761 16.9389
rtibia 99.2125 0 0
rfoot 13.7491 0.0100829 0
rtoes 18.336 0 0
lowerback 3.4417 6.03662 -3.34876
upperback -0.854807 7.83921 -2.1402
thorax -2.94747 3.94268 -0.823702
lowerneck -5.99631 -8.84773 -1.83372
upperneck -2.19981 -11.8563 6.53928
head 0.851415 -5.92654 2.00825
lclavicle -1.07912e-14 2.31726e-14 0
lhumerus -51.3024 -5.83155 82.9341
lradius 51.0754 0 0
lwrist 13.5555 0 0
lhand -29.9429 -5.21803 0
lfingers 7.12502 0 0
lthumb -3.26231 24.7367 0
rclavicle -1.07912e-14 2.31726e-14 0
rhumerus 12.3535 47.8319 -79.8427
rradius 94.4704 0 0
rwrist 2.69955 0 0
rhand -16.7819 -17.3465 0
rfingers 7.12502 0 0
rthumb 9.44572 -767.115 0
752
root 3.87226 16.2122 15.3718 -163.314 3.70382 188.586
lfemur -38.6748 10.331 -20.1724
ltibia 54.863 0 0
lfoot -32.4695 9.81681 0
ltoes 7.49965 0 0
rfemur -26.7944 -32.858 17.8278
rtibia 97.2091 0 0
rfoot 13.8401 -1.20553 0
rtoes 19.6168 0 0
lowerback 3.52396 5.93935 -3.48896
upperback -0.783456 7.71785 -2.39934
thorax -2.9012 3.89081 -1.00761
lowerneck -5.8707 -8.88837 -1.86759
upperneck -2.10263 -11.868 6.5312
head 0.863451 -5.90696 2.01462
lclavicle -1.40285e-14 1.77202e-14 0
lhumerus -51.0858 -6.68718 84.1657
lradius 52.7767 0 0
lwrist 13.3583 0 0
lhand -29.8864 -5.71423 0
lfingers 7.12502 0 0
lthumb -3.20779 24.2413 0
rclavicle -1.40285e-14 1.77202e-14 0
rhumerus 8.33279 48.8411 -83.1347
rradius 93.2076 0 0
rwrist 3.26167 0 0
rhand -16.8893 -17.3988 0
rfingers 7.12502 0 0
rthumb 9.34208 -767.172 0
753
root 3.79896 16.1464 15.5324 -163.399 6.67712 188.589
lfemur -39.5311 12.1752 -21.058
ltibia 56.0101 0 0
lfoot -32.6944 10.3394 0
ltoes 8.4233 0 0
rfemur -26.2239 -32.7399 18.7167
rtibia 95.2056 0 0
rfoot 13.931 -2.42115 0
rtoes 20.8976 0 0
lowerback 3.60621 5.84209 -3.62917
upperback -0.712104 7.5965 -2.65849
thorax -2.85492 3.83895 -1.19152
lowerneck -5.74508 -8.92902 -1.90146
upperneck -2.00544 -11.8798 6.52312
head 0.875487 -5.88739 2.02098
lclavicle -1.72659e-14 1.22679e-14 0
lhumerus -50.8692 -7.5428 85.3974
lradius 54.4781 0 0
lwrist 13.1611 0 0
lhand -29.83 -6.21042 0
lfingers 7.12502 0 0
lthumb -3.15328 23.7459 0
rclavicle -1.72659e-14 1.22679e-14 0
rhumerus 4.31203 49.8503 -86.4266
rradius 91.9448 0 0
rwrist 3.82378 0 0
rhand -16.9967 -17.4512 0
rfingers 7.12502 0 0
rthumb 9.23843 -767.229 0
754
root 3.72566 16.0807 15.6931 -163.483 9.65041 188.593
lfemur -40.3874 14.0193 -21.9435
ltibia 57.1572 0 0
lfoot -32.9194 10.8621 0
ltoes 9.34695 0 0
rfemur -25.6535 -32.6217 19.6057
rtibia 93.2022 0 0
rfoot 14.0219 -3.63677 0
rtoes 22.1785 0 0
lowerback 3.68847 5.74482 -3.76938
upperback -0.640752 7.47515 -2.91764
thorax -2.80864 3.78709 -1.37544
lowerneck -5.61947 -8.96967 -1.93532
upperneck -1.90826 -11.8915 6.51504
head 0.887523 -5.86781 2.02734
lclavicle -2.05032e-14 6.81548e-15 0
lhumerus -50.6527 -8.39843 86.6291
lradius 56.1794 0 0
lwrist 12.9638 0 0
lhand -29.7735 -6.70661 0
lfingers 7.12502 0 0
lthumb -3.09877 23.2506 0
rclavicle -2.05032e-14 6.81548e-15 0
rhumerus 0.291271 50.8594 -89.7186
rradius 90.6819 0 0
rwrist 4.38589 0 0
rhand -17.1042 -17.5035 0
rfingers 7.12502 0 0
rthumb 9.13478 -767.285 0
755
root 3.65236 16.0149 15.8537 -163.568 12.6237 188.596
lfemur -41.2437 15.8635 -22.8291
ltibia 58.3043 0 0
lfoot -33.1443 11.3847 0
ltoes 10.2706 0 0
rfemur -25.083 -32.5036 20.4946
rtibia 91.1987 0 0
rfoot 14.1128 -4.85239 0
rtoes 23.4593 0 0
lowerback 3.77072 5.64756 -3.90959
upperback -0.5694 7.3538 -3.17679
thorax -2.76236 3.73523 -1.55935
lowerneck -5.49385 -9.01032 -1.96919
upperneck -1.81107 -11.9033 6.50696
head 0.899559 -5.84824 2.0337
lclavicle -2.37406e-14 1.3631e-15 0
lhumerus -50.4361 -9.25405 87.8608
lradius 57.8808 0 0
lwrist 12.7666 0 0
lhand -29.7171 -7.2028 0
lfingers 7.12502 0 0
lthumb -3.04426 22.7552 0
rclavicle -2.37406e-14 1.3631e-15 0
rhumerus -3.72949 51.8686 -93.0105
rradius 89.4191 0 0
rwrist 4.948 0 0
rhand -17.2116 -17.5559 0
rfingers 7.12502 0 0
rthumb 9.03113 -767.342 0
756
root 3.57906 15.9492 16.0143 -163.653 15.597 188.599
lfemur -42.1001 17.7077 -23.7146
ltibia 59.4515 0 0
lfoot -33.3692 11.9074 0
ltoes 11.1943 0 0
rfemur -24.5125 -32.3855 21.3835
rtibia 89.1953 0 0
rfoot 14.2038 -6.068 0
rtoes 24.7401 0 0
lowerback 3.85298 5.55029 -4.04979
upperback -0.498049 7.23244 -3.43593
thorax -2.71609 3.68336 -1.74326
lowerneck -5.36824 -9.05096 -2.00306
upperneck -1.71389 -11.915 6.49888
head 0.911595 -5.82866 2.04007
lclavicle -2.69779e-14 -4.08928e-15 0
lhumerus -50.2195 -10.1097 89.0924
lradius 59.5821 0 0
lwrist 12.5694 0 0
lhand -29.6606 -7.699 0
lfingers 7.12502 0 0
lthumb -2.98974 22.2598 0
rclavicle -2.69779e-14 -4.08928e-15 0
rhumerus -7.75024 52.8778 -96.3025
rradius 88.1563 0 0
rwrist 5.51012 0 0
rhand -17.319 -17.6082 0
rfingers 7.12502 0 0
rthumb 8.92749 -767.399 0
757
root 3.50576 15.8834 16.1749 -163.738 18.5703 188.602
lfemur -42.9564 19.5519 -24.6002
ltibia 60.5986 0 0
lfoot -33.5941 12.43 0
ltoes 12.1179 0 0
rfemur -23.942 -32.2674 22.2724
rtibia 87.1918 0 0
rfoot 14.2947 -7.28362 0
rtoes 26.0209 0 0
lowerback 3.93523 5.45303 -4.19
upperback -0.426697 7.11109 -3.69508
thorax -2.66981 3.6315 -1.92717
lowerneck -5.24262 -9.09161 -2.03693
upperneck -1.6167 -11.9268 6.4908
head 0.923631 -5.80909 2.04643
lclavicle -3.02153e-14 -9.54166e-15 0
lhumerus -50.0029 -10.9653 90.3241
lradius 61.2835 0 0
lwrist 12.3722 0 0
lhand -29.6042 -8.19519 0
lfingers 7.12502 0 0
lthumb -2.93523 21.7644 0
rclavicle -3.02153e-14 -9.54166e-15 0
rhumerus -11.771 53.887 -99.5944
rradius 86.8935 0 0
rwrist 6.07223 0 0
rhand -17.4264 -17.6606 0
rfingers 7.12502 0 0
rthumb 8.82384 -767.456 0
758
root 3.40763 15.8751 16.2981 -163.474 22.0954 189.022
lfemur -43.3756 20.5065 -24.8861
ltibia 60.7194 0 0
lfoot -33.499 13.9784 0
ltoes 13.3403 0 0
rfemur -23.145 -32.2864 22.5815
rtibia 85.1304 0 0
rfoot 13.0701 -9.01067 0
rtoes 23.8014 0 0
lowerback 3.74794 5.39866 -4.02173
upperback -0.483514 7.05004 -3.74146
thorax -2.59904 3.59763 -2.04551
lowerneck -5.2181 -8.99299 -2.02813
upperneck -1.53005 -11.8053 6.32723
head 0.930107 -5.75464 1.99721
lclavicle -1.10184e-14 -5.45238e-15 0
lhumerus -50.2409 -10.9649 90.7135
lradius 62.3241 0 0
lwrist 13.0266 0 0
lhand -29.0169 -8.01132 0
lfingers 7.12502 0 0
lthumb -2.36801 21.9508 0
rclavicle -1.10184e-14 -5.45238e-15 0
rhumerus -13.7122 54.18 -100.485
rradius 86.151 0 0
rwrist 6.27985 0 0
rhand -16.6718 -17.6868 0
rfingers 7.12502 0 0
rthumb 9.55161 -767.442 0
759
root 3.30951 15.8669 16.4214 -163.211 25.6205 189.442
lfemur -43.7948 21.4611 -25.1721
ltibia 60.8402 0 0
lfoot -33.4038 15.5268 0
ltoes 14.5628 0 0
rfemur -22.348 -32.3054 22.8907
rtibia 83.0689 0 0
rfoot 11.8454 -10.7377 0
rtoes 21.582 0 0
lowerback 3.56065 5.34429 -3.85346
upperback -0.540331 6.98899 -3.78783
thorax -2.52828 3.56375 -2.16385
lowerneck -5.19357 -8.89438 -2.01934
upperneck -1.44341 -11.6838 6.16366
head 0.936584 -5.70019 1.94798
lclavicle 8.1785e-15 -1.3631e-15 0
lhumerus -50.4789 -10.9644 91.1029
lradius 63.3646 0 0
lwrist 13.6811 0 0
lhand -28.4296 -7.82744 0
lfingers 7.12502 0 0
lthumb -1.8008 22.1372 0
rclavicle 8.1785e-15 -1.3631e-15 0
rhumerus -15.6535 54.4731 -101.376
rradius 85.4086 0 0
rwrist 6.48748 0 0
rhand -15.9172 -17.7131 0
rfingers 7.12502 0 0
rthumb 10.2794 -767.428 0
